HIERARCHY
ROOT Hips
{
	OFFSET 0.000000 71.427986 0.000000
	CHANNELS 6 Xposition Yposition Zposition Xrotation Yrotation Zrotation
	JOINT Pelvis
	{
		OFFSET 0.000000 0.000000 0.000000
		CHANNELS 3 Xrotation Yrotation Zrotation
		JOINT LeftUpLeg
		{
			OFFSET 6.797100 -2.508499 -1.318700
			CHANNELS 3 Xrotation Yrotation Zrotation
			JOINT LeftLeg
			{
				OFFSET 0.069008 -29.241863 0.690200
				CHANNELS 3 Xrotation Yrotation Zrotation
				JOINT LeftFoot
				{
					OFFSET -0.069008 -29.568123 -0.266800
					CHANNELS 3 Xrotation Yrotation Zrotation
					JOINT LeftToeBase
					{
						OFFSET 3.145500 -8.631000 16.059900
						CHANNELS 3 Xrotation Yrotation Zrotation
						End Site
						{
							OFFSET 0.000000 18.501587 0.000000
						}
					}
				}
			}
			JOINT Left_ShortSleeve
			{
				OFFSET 0.265923 -10.480953 1.153800
				CHANNELS 3 Xrotation Yrotation Zrotation
				End Site
				{
					OFFSET 1.725763 19.823879 0.000000
				}
			}
		}
		JOINT RightUpLeg
		{
			OFFSET -6.797100 -2.508499 -1.318700
			CHANNELS 3 Xrotation Yrotation Zrotation
			JOINT RightLeg
			{
				OFFSET -0.082453 -29.241932 0.688000
				CHANNELS 3 Xrotation Yrotation Zrotation
				JOINT RightFoot
				{
					OFFSET 0.082453 -29.568058 -0.264600
					CHANNELS 3 Xrotation Yrotation Zrotation
					JOINT RightToeBase
					{
						OFFSET -3.115300 -8.682800 16.113400
						CHANNELS 3 Xrotation Yrotation Zrotation
						End Site
						{
							OFFSET 0.000000 18.567114 0.000000
						}
					}
				}
			}
			JOINT Right_ShortSleeve
			{
				OFFSET -0.265923 -10.480953 1.153800
				CHANNELS 3 Xrotation Yrotation Zrotation
				End Site
				{
					OFFSET -1.725766 19.823910 0.000000
				}
			}
		}
	}
	JOINT Spine
	{
		OFFSET 0.000000 13.368103 0.470500
		CHANNELS 3 Xrotation Yrotation Zrotation
		JOINT Spine1
		{
			OFFSET 0.147000 13.837402 0.538800
			CHANNELS 3 Xrotation Yrotation Zrotation
			JOINT Spine2
			{
				OFFSET 0.168000 16.242897 -1.435500
				CHANNELS 3 Xrotation Yrotation Zrotation
				JOINT Neck
				{
					OFFSET 0.217200 18.631500 -1.679100
					CHANNELS 3 Xrotation Yrotation Zrotation
					JOINT Head
					{
						OFFSET 0.000000 6.599396 1.385900
						CHANNELS 3 Xrotation Yrotation Zrotation
						JOINT Hat
						{
							OFFSET -0.532200 27.220596 -10.096100
							CHANNELS 3 Xrotation Yrotation Zrotation
							End Site
							{
								OFFSET 0.000000 22.029861 0.000000
							}
						}
						JOINT HairD
						{
							OFFSET -10.777400 17.437393 -1.325900
							CHANNELS 3 Xrotation Yrotation Zrotation
							JOINT HairD1
							{
								OFFSET -3.290299 -11.051193 1.062200
								CHANNELS 3 Xrotation Yrotation Zrotation
								End Site
								{
									OFFSET 0.000000 11.579437 0.000000
								}
							}
						}
						JOINT HairB
						{
							OFFSET -10.777400 17.437393 1.467900
							CHANNELS 3 Xrotation Yrotation Zrotation
							JOINT HairB1
							{
								OFFSET -1.561200 -12.956299 3.590200
								CHANNELS 3 Xrotation Yrotation Zrotation
								End Site
								{
									OFFSET 0.000000 13.534866 0.000000
								}
							}
						}
						JOINT HairA
						{
							OFFSET 9.713100 17.437393 1.467900
							CHANNELS 3 Xrotation Yrotation Zrotation
							JOINT HairA1
							{
								OFFSET 1.561200 -12.956299 3.590200
								CHANNELS 3 Xrotation Yrotation Zrotation
								End Site
								{
									OFFSET 0.000000 13.534866 0.000000
								}
							}
						}
						JOINT HairC
						{
							OFFSET 9.713100 17.437393 -1.325900
							CHANNELS 3 Xrotation Yrotation Zrotation
							JOINT HairC1
							{
								OFFSET 3.290300 -11.051193 1.062200
								CHANNELS 3 Xrotation Yrotation Zrotation
								End Site
								{
									OFFSET 0.000000 11.579437 0.000000
								}
							}
						}
					}
				}
				JOINT LeftShoulder
				{
					OFFSET 5.101800 15.108002 -2.763700
					CHANNELS 3 Xrotation Yrotation Zrotation
					JOINT LeftArm
					{
						OFFSET 9.825497 2.506317 -1.597400
						CHANNELS 3 Xrotation Yrotation Zrotation
						JOINT LeftForeArm
						{
							OFFSET 21.966244 0.000000 0.000000
							CHANNELS 3 Xrotation Yrotation Zrotation
							JOINT LeftHand
							{
								OFFSET 33.879036 0.000000 0.000000
								CHANNELS 3 Xrotation Yrotation Zrotation
								JOINT LeftHandThumb1
								{
									OFFSET 6.715286 -2.359680 3.363841
									CHANNELS 3 Xrotation Yrotation Zrotation
									JOINT LeftHandThumb2
									{
										OFFSET 2.507072 -1.447464 1.447461
										CHANNELS 3 Xrotation Yrotation Zrotation
										JOINT LeftHandThumb3
										{
											OFFSET 2.898338 -1.673355 1.673357
											CHANNELS 3 Xrotation Yrotation Zrotation
											End Site
											{
												OFFSET -0.295959 3.727692 -0.131651
											}
										}
									}
								}
								JOINT LeftHandIndex1
								{
									OFFSET 14.190811 -0.254547 3.840278
									CHANNELS 3 Xrotation Yrotation Zrotation
									JOINT LeftHandIndex2
									{
										OFFSET 3.551727 0.000000 -0.000000
										CHANNELS 3 Xrotation Yrotation Zrotation
										JOINT LeftHandIndex3
										{
											OFFSET 2.894196 0.000000 0.000000
											CHANNELS 3 Xrotation Yrotation Zrotation
											End Site
											{
												OFFSET -1.000603 2.690872 0.366626
											}
										}
									}
								}
								JOINT LeftHandMiddle1
								{
									OFFSET 13.776489 0.000000 0.000000
									CHANNELS 3 Xrotation Yrotation Zrotation
									JOINT LeftHandMiddle2
									{
										OFFSET 3.438232 0.000000 0.000000
										CHANNELS 3 Xrotation Yrotation Zrotation
										JOINT LeftHandMiddle3
										{
											OFFSET 3.691551 0.000000 0.000000
											CHANNELS 3 Xrotation Yrotation Zrotation
											End Site
											{
												OFFSET -1.082298 3.499527 0.457670
											}
										}
									}
								}
								JOINT LeftHandRing1
								{
									OFFSET 13.966164 -0.268127 -3.067488
									CHANNELS 3 Xrotation Yrotation Zrotation
									JOINT LeftHandRing2
									{
										OFFSET 3.162567 0.000000 0.000000
										CHANNELS 3 Xrotation Yrotation Zrotation
										JOINT LeftHandRing3
										{
											OFFSET 3.324348 0.000000 0.000000
											CHANNELS 3 Xrotation Yrotation Zrotation
											End Site
											{
												OFFSET -0.861900 3.184998 0.405154
											}
										}
									}
								}
								JOINT LeftHandPinky1
								{
									OFFSET 13.131393 -0.168503 -5.746925
									CHANNELS 3 Xrotation Yrotation Zrotation
									JOINT LeftHandPinky2
									{
										OFFSET 2.849182 0.000000 0.000000
										CHANNELS 3 Xrotation Yrotation Zrotation
										JOINT LeftHandPinky3
										{
											OFFSET 2.805038 0.000000 0.000000
											CHANNELS 3 Xrotation Yrotation Zrotation
											End Site
											{
												OFFSET -0.882500 2.642609 0.325652
											}
										}
									}
								}
							}
							JOINT Left_Sleeve
							{
								OFFSET 6.592125 -0.646545 0.805568
								CHANNELS 3 Xrotation Yrotation Zrotation
								End Site
								{
									OFFSET -0.000179 20.275787 -0.000000
								}
							}
						}
					}
				}
				JOINT RightShoulder
				{
					OFFSET -5.731700 15.108002 -2.763700
					CHANNELS 3 Xrotation Yrotation Zrotation
					JOINT RightArm
					{
						OFFSET -9.825497 2.506317 -1.597400
						CHANNELS 3 Xrotation Yrotation Zrotation
						JOINT RightForeArm
						{
							OFFSET -21.966242 0.000000 0.000000
							CHANNELS 3 Xrotation Yrotation Zrotation
							JOINT RightHand
							{
								OFFSET -33.879032 0.000000 0.000000
								CHANNELS 3 Xrotation Yrotation Zrotation
								JOINT RightHandThumb1
								{
									OFFSET -6.715286 -2.359680 3.363841
									CHANNELS 3 Xrotation Yrotation Zrotation
									JOINT RightHandThumb2
									{
										OFFSET -2.507072 -1.447464 1.447461
										CHANNELS 3 Xrotation Yrotation Zrotation
										JOINT RightHandThumb3
										{
											OFFSET -2.898338 -1.673355 1.673357
											CHANNELS 3 Xrotation Yrotation Zrotation
											End Site
											{
												OFFSET 0.295959 3.727692 -0.131651
											}
										}
									}
								}
								JOINT RightHandIndex1
								{
									OFFSET -14.190811 -0.254547 3.840278
									CHANNELS 3 Xrotation Yrotation Zrotation
									JOINT RightHandIndex2
									{
										OFFSET -3.551727 0.000000 -0.000000
										CHANNELS 3 Xrotation Yrotation Zrotation
										JOINT RightHandIndex3
										{
											OFFSET -2.894196 0.000000 0.000000
											CHANNELS 3 Xrotation Yrotation Zrotation
											End Site
											{
												OFFSET 1.000603 2.690872 0.366626
											}
										}
									}
								}
								JOINT RightHandMiddle1
								{
									OFFSET -13.776489 0.000000 0.000000
									CHANNELS 3 Xrotation Yrotation Zrotation
									JOINT RightHandMiddle2
									{
										OFFSET -3.438232 0.000000 0.000000
										CHANNELS 3 Xrotation Yrotation Zrotation
										JOINT RightHandMiddle3
										{
											OFFSET -3.691551 0.000000 0.000000
											CHANNELS 3 Xrotation Yrotation Zrotation
											End Site
											{
												OFFSET 1.082298 3.499527 0.457670
											}
										}
									}
								}
								JOINT RightHandRing1
								{
									OFFSET -13.966164 -0.268127 -3.067488
									CHANNELS 3 Xrotation Yrotation Zrotation
									JOINT RightHandRing2
									{
										OFFSET -3.162567 0.000000 0.000000
										CHANNELS 3 Xrotation Yrotation Zrotation
										JOINT RightHandRing3
										{
											OFFSET -3.324348 0.000000 0.000000
											CHANNELS 3 Xrotation Yrotation Zrotation
											End Site
											{
												OFFSET 0.861900 3.184998 0.405154
											}
										}
									}
								}
								JOINT RightHandPinky1
								{
									OFFSET -13.131393 -0.168503 -5.746925
									CHANNELS 3 Xrotation Yrotation Zrotation
									JOINT RightHandPinky2
									{
										OFFSET -2.849182 0.000000 0.000000
										CHANNELS 3 Xrotation Yrotation Zrotation
										JOINT RightHandPinky3
										{
											OFFSET -2.805038 0.000000 0.000000
											CHANNELS 3 Xrotation Yrotation Zrotation
											End Site
											{
												OFFSET 0.882500 2.642609 0.325652
											}
										}
									}
								}
							}
							JOINT Right_Sleeve
							{
								OFFSET -6.592125 -0.646545 0.805568
								CHANNELS 3 Xrotation Yrotation Zrotation
								End Site
								{
									OFFSET 0.000179 20.275787 -0.000000
								}
							}
						}
					}
				}
				JOINT Bind_Right_JacketString
				{
					OFFSET -3.534800 11.969597 7.200700
					CHANNELS 3 Xrotation Yrotation Zrotation
					JOINT Bind_Right_JacketString1
					{
						OFFSET -0.319900 -6.102600 2.794100
						CHANNELS 3 Xrotation Yrotation Zrotation
						End Site
						{
							OFFSET 0.000000 6.719452 0.000000
						}
					}
				}
				JOINT Bind_Left_JacketString
				{
					OFFSET 2.904800 11.969597 7.200700
					CHANNELS 3 Xrotation Yrotation Zrotation
					JOINT Bind_Left_JacketString1
					{
						OFFSET 0.364800 -5.904503 3.186800
						CHANNELS 3 Xrotation Yrotation Zrotation
						End Site
						{
							OFFSET 0.000000 6.719513 0.000000
						}
					}
				}
				JOINT HairE
				{
					OFFSET 5.915200 17.612701 -11.592200
					CHANNELS 3 Xrotation Yrotation Zrotation
					JOINT HairE1
					{
						OFFSET 0.289200 -7.171898 -1.284500
						CHANNELS 3 Xrotation Yrotation Zrotation
						End Site
						{
							OFFSET 0.000000 7.291756 0.000000
						}
					}
				}
				JOINT HairF
				{
					OFFSET -0.864800 17.612701 -11.592200
					CHANNELS 3 Xrotation Yrotation Zrotation
					JOINT HairF1
					{
						OFFSET 0.000000 -14.087097 -2.127501
						CHANNELS 3 Xrotation Yrotation Zrotation
						End Site
						{
							OFFSET 0.000000 14.246841 0.000000
						}
					}
				}
				JOINT HairG
				{
					OFFSET -8.087700 17.612701 -11.592200
					CHANNELS 3 Xrotation Yrotation Zrotation
					JOINT HairG1
					{
						OFFSET -0.293600 -6.081398 -0.910100
						CHANNELS 3 Xrotation Yrotation Zrotation
						End Site
						{
							OFFSET 0.000000 6.156120 0.000000
						}
					}
				}
			}
		}
	}
	JOINT Pouch
	{
		OFFSET 0.000000 4.394501 10.847300
		CHANNELS 3 Xrotation Yrotation Zrotation
		End Site
		{
			OFFSET 0.000000 21.880577 0.000000
		}
	}
	JOINT Bag
	{
		OFFSET -13.229000 4.813004 -0.593300
		CHANNELS 3 Xrotation Yrotation Zrotation
		End Site
		{
			OFFSET 0.000000 21.880577 0.000000
		}
	}
	JOINT OccupyGuyFacialAnim_Joint
	{
		OFFSET 1.000000 -70.206398 -1.655000
		CHANNELS 3 Xrotation Yrotation Zrotation
		End Site
		{
			OFFSET 0.000000 21.880577 0.000000
		}
	}
}
MOTION
Frames: 4
Frame Time: 0.033333
-0.005154 41.864555 1.187778 0.144453 0.170032 0.952850 0.000000 -0.000000 0.000000 -87.443613 -5.014107 11.052124 82.704978 6.682809 0.254019 5.740329 -7.114962 -5.765245 0.000000 0.000000 0.000000 -0.000000 0.000000 0.000001 -88.201532 6.564032 -7.385244 82.638957 -6.348176 -1.873721 6.766919 0.060928 6.760561 0.000000 -0.000001 -0.000000 0.000000 0.000000 -0.000000 10.430512 0.009625 -1.559213 -0.199082 0.213325 -0.355472 -0.199403 0.248526 -0.300890 -1.001767 -1.284342 0.469464 -8.883496 -4.327064 -5.321562 -0.000000 -0.000000 0.000000 -0.000000 -0.000000 0.000000 -0.000000 -0.000000 -0.000000 -0.000000 -0.000000 0.000000 -0.000000 -0.000000 -0.000000 -0.000000 -0.000000 0.000000 -0.000000 -0.000000 -0.000000 -0.000000 -0.000000 0.000000 -0.000000 -0.000000 0.000000 0.823529 -15.262000 -7.868720 4.746620 -21.216388 -54.862060 -0.000017 -62.197929 -0.000012 31.063045 4.315375 41.770415 6.610608 1.798260 20.801495 2.716389 20.172568 -24.389171 0.000000 0.000001 -0.000000 -0.235308 2.798420 -26.913109 0.396822 2.121278 -21.189301 0.000002 0.000000 -0.000002 1.299145 7.334304 -16.511089 0.329951 1.940087 -19.302244 0.000001 0.000000 0.000001 1.797288 9.808093 -14.183659 0.205914 1.541122 -15.220645 -0.000002 0.000001 -0.000001 2.041305 10.867557 -13.918927 0.168515 1.396427 -13.761341 0.000002 -0.000000 -0.000001 0.000001 -0.000002 -0.000003 3.171107 -4.378745 8.782863 -3.950430 37.253399 63.733622 -0.000001 55.138229 0.000021 43.537415 4.740997 -36.278178 -9.383515 -1.613341 -17.604715 3.557100 -24.337024 34.656837 0.000002 0.000001 -0.000001 2.957835 1.012823 13.529995 0.472457 -2.045658 26.006741 0.000001 -0.000000 -0.000005 0.105544 -3.665058 2.525365 0.584995 -2.261681 29.000584 0.000000 0.000003 0.000001 0.456438 -7.644377 4.305918 0.107458 -0.995736 12.319035 0.000001 -0.000001 -0.000001 -11.162319 -10.227930 7.169801 0.029118 -0.520522 6.403073 0.000000 0.000000 -0.000001 0.000000 -0.000001 -0.000002 0.000001 0.000000 -0.000000 0.000001 -0.000000 -0.000000 0.000001 0.000000 -0.000000 0.000001 0.000000 -0.000000 0.000001 0.000000 -0.000000 0.000001 -0.000000 -0.000000 0.000001 0.000000 -0.000000 0.000001 0.000000 -0.000000 0.000001 0.000000 -0.000000 0.000001 -0.000000 -0.000000 0.000000 -0.000000 0.000000 0.000000 -0.000000 0.000000 0.000000 -0.000000 0.000000 
-0.005850 41.867676 1.184909 0.144436 0.169843 0.952886 0.000000 0.000000 0.000000 -87.440355 -5.012591 11.051547 82.701262 6.683448 0.254035 5.740613 -7.114592 -5.755400 0.000000 0.000000 0.000000 0.000000 0.000000 -0.000000 -88.198738 6.561277 -7.383061 82.635645 -6.349915 -1.873722 6.766822 0.060289 6.748970 0.000000 -0.000000 0.000000 0.000000 0.000001 -0.000000 10.429162 0.009151 -1.559089 -0.199352 0.212343 -0.355334 -0.199671 0.247584 -0.300632 -1.031722 -1.286155 0.470695 -8.865765 -4.344903 -5.293108 0.000000 0.000000 0.000000 0.000000 0.000000 0.000000 0.000000 0.000000 -0.000000 0.000000 0.000000 0.000000 0.000000 0.000000 0.000000 0.000000 0.000000 0.000000 0.000000 0.000000 0.000000 0.000000 0.000000 0.000000 0.000000 0.000000 0.000000 0.828323 -15.236089 -7.864732 4.750002 -21.278114 -54.837984 -0.000015 -62.174433 -0.000022 31.027295 4.325107 41.776920 6.610610 1.798256 20.801498 2.716392 20.172569 -24.389169 0.000000 0.000001 0.000001 -0.235639 2.794229 -26.874288 0.394426 2.115093 -21.124366 0.000000 0.000000 -0.000000 1.301993 7.336926 -16.543958 0.326792 1.931037 -19.208379 0.000000 -0.000001 0.000002 1.800578 9.809892 -14.209057 0.204092 1.534375 -15.152425 -0.000003 -0.000001 -0.000001 2.035368 10.874449 -13.970208 0.166945 1.389975 -13.696550 -0.000003 0.000000 -0.000002 0.000002 -0.000003 0.000002 3.176782 -4.369148 8.863849 -3.669006 37.544382 63.303429 -0.000024 55.201811 0.000034 43.184523 4.601436 -36.374439 -9.383516 -1.613338 -17.604712 3.557104 -24.337023 34.656837 -0.000002 0.000001 -0.000001 2.957836 1.012825 13.529996 0.472454 -2.045660 26.006741 -0.000002 0.000000 -0.000001 0.105543 -3.665058 2.525363 0.584997 -2.261682 29.000587 -0.000001 0.000001 -0.000001 0.456440 -7.644376 4.305918 0.107460 -0.995737 12.319037 -0.000001 -0.000001 0.000001 -11.162320 -10.227930 7.169801 0.029114 -0.520522 6.403072 -0.000002 -0.000000 0.000002 -0.000001 -0.000001 0.000000 -0.000000 0.000000 -0.000000 0.000001 0.000000 -0.000000 -0.000000 0.000000 -0.000000 -0.000000 0.000000 -0.000000 -0.000000 0.000000 -0.000000 0.000001 0.000000 -0.000000 -0.000000 0.000000 -0.000000 -0.000000 0.000000 -0.000000 -0.000000 0.000000 -0.000000 0.000001 0.000000 -0.000000 0.000000 0.000000 0.000000 0.000000 0.000000 0.000000 0.000000 0.000000 0.000000 
-0.006017 41.868515 1.184870 0.144210 0.169637 0.952923 0.000000 0.000000 0.000000 -87.438948 -5.010480 11.049871 82.696980 6.685385 0.254028 5.743395 -7.114615 -5.753308 0.000000 0.000001 0.000000 0.000000 0.000000 -0.000000 -88.195965 6.562025 -7.384707 82.629381 -6.348576 -1.873722 6.770750 0.060552 6.750138 0.000000 0.000001 0.000000 -0.000000 0.000000 -0.000000 10.431760 0.008984 -1.558918 -0.199638 0.211284 -0.355177 -0.199940 0.246565 -0.300357 -1.070247 -1.304481 0.498597 -8.790558 -4.375266 -5.405899 -0.000000 0.000001 -0.000000 -0.000000 0.000001 -0.000000 -0.000000 0.000001 -0.000000 -0.000000 0.000001 0.000000 -0.000000 0.000000 0.000000 -0.000000 0.000001 0.000000 -0.000000 0.000000 0.000000 -0.000000 0.000001 -0.000000 -0.000000 0.000001 -0.000000 0.833221 -15.248997 -7.838438 4.743714 -21.290372 -54.852156 0.000026 -62.163321 0.000030 31.008779 4.328006 41.794259 6.610608 1.798257 20.801497 2.716389 20.172574 -24.389163 -0.000000 0.000001 -0.000001 -0.235959 2.789930 -26.834205 0.391962 2.108688 -21.057367 0.000003 0.000000 -0.000002 1.304931 7.339637 -16.577713 0.323536 1.921658 -19.111732 0.000002 0.000001 -0.000003 1.803992 9.811741 -14.235250 0.202213 1.527411 -15.082041 -0.000001 0.000001 -0.000001 2.029264 10.881571 -14.023100 0.165327 1.383332 -13.629736 -0.000004 -0.000000 0.000001 0.000002 -0.000002 -0.000001 3.182057 -4.353560 8.951047 -3.557467 37.549170 63.133016 -0.000021 55.276765 0.000030 43.143242 4.564145 -36.356120 -9.383514 -1.613339 -17.604714 3.557105 -24.337023 34.656841 0.000001 0.000000 0.000002 2.957834 1.012824 13.529997 0.472455 -2.045664 26.006744 0.000001 0.000000 -0.000001 0.105546 -3.665059 2.525364 0.584996 -2.261682 29.000584 0.000001 0.000000 -0.000001 0.456439 -7.644376 4.305918 0.107463 -0.995738 12.319038 -0.000002 -0.000001 -0.000002 -11.162319 -10.227932 7.169804 0.029118 -0.520523 6.403074 -0.000000 0.000001 -0.000001 0.000000 -0.000004 0.000000 0.000001 0.000000 -0.000000 0.000001 0.000000 -0.000000 0.000001 0.000000 -0.000000 0.000001 0.000000 -0.000000 0.000001 0.000000 -0.000000 0.000001 0.000000 -0.000000 0.000001 0.000000 -0.000000 0.000001 0.000000 -0.000000 0.000001 0.000000 -0.000000 0.000001 0.000000 -0.000000 0.000000 0.000000 0.000000 0.000000 0.000000 0.000000 0.000000 0.000000 0.000000 
-0.006459 41.868675 1.185365 0.143889 0.169447 0.952939 0.000000 -0.000000 -0.000000 -87.437466 -5.011755 11.051833 82.696761 6.683793 0.254033 5.742726 -7.114719 -5.755935 0.000000 0.000000 -0.000000 0.000000 0.000000 0.000001 -88.195794 6.560702 -7.383391 82.631062 -6.349574 -1.873718 6.768895 0.060372 6.749683 0.000000 0.000000 -0.000000 -0.000000 0.000000 0.000000 10.440719 0.008697 -1.558618 -0.199894 0.210383 -0.355064 -0.200197 0.245703 -0.300124 -1.095665 -1.327644 0.533010 -8.725107 -4.405823 -5.564088 -0.000000 0.000000 -0.000000 -0.000000 0.000000 -0.000000 -0.000000 0.000000 -0.000000 -0.000000 0.000000 -0.000000 -0.000000 0.000001 -0.000000 -0.000000 0.000000 -0.000000 -0.000000 0.000001 -0.000000 -0.000000 0.000000 -0.000000 -0.000000 0.000000 -0.000000 0.834901 -15.286172 -7.810598 4.744502 -21.264001 -54.875027 -0.000003 -62.173026 -0.000003 31.000388 4.334357 41.815245 6.610608 1.798256 20.801500 2.716389 20.172568 -24.389164 0.000001 0.000002 0.000000 -0.236291 2.785496 -26.792761 0.389406 2.102054 -20.988072 0.000004 0.000001 -0.000000 1.307963 7.342447 -16.612557 0.320195 1.912002 -19.011844 -0.000003 0.000001 -0.000001 1.807507 9.813670 -14.262322 0.200274 1.520227 -15.009257 -0.000001 0.000001 -0.000002 2.022962 10.888989 -14.077793 0.163664 1.376451 -13.560620 -0.000001 -0.000000 -0.000001 0.000003 0.000003 -0.000001 3.186996 -4.336063 9.038597 -3.521339 37.434648 63.076401 0.000014 55.356241 -0.000022 43.232659 4.574146 -36.288898 -9.383519 -1.613339 -17.604714 3.557104 -24.337023 34.656837 0.000002 -0.000003 0.000003 2.957833 1.012825 13.529995 0.472453 -2.045662 26.006743 -0.000001 0.000001 -0.000007 0.105541 -3.665059 2.525364 0.584995 -2.261681 29.000587 0.000001 -0.000001 -0.000004 0.456436 -7.644377 4.305919 0.107458 -0.995738 12.319036 -0.000002 0.000000 0.000000 -11.162319 -10.227930 7.169804 0.029113 -0.520522 6.403073 0.000000 0.000002 -0.000004 0.000002 -0.000000 0.000001 0.000001 0.000000 0.000000 0.000001 0.000000 -0.000000 0.000001 0.000000 0.000000 0.000001 0.000000 0.000000 0.000001 0.000000 0.000000 0.000001 0.000000 -0.000000 0.000001 0.000000 0.000000 0.000001 0.000000 0.000000 0.000001 0.000000 0.000000 0.000001 0.000000 -0.000000 0.000000 -0.000000 -0.000000 0.000000 -0.000000 -0.000000 0.000000 -0.000000 -0.000000 
